<svg xmlns="http://www.w3.org/2000/svg" x="px" y="0px" width="250" height="250" viewBox="0,0,256,256"
style="fill:#000000;">
<g fill="#de36c1" fill-rule="nonzero" stroke="none" stroke-width="1" stroke-linecap="butt" stroke-linejoin="miter" stroke-miterlimit="10" stroke-dasharray="" stroke-dashoffset="0" font-family="none" font-weight="none" font-size="none" text-anchor="none" style="mix-blend-mode: normal"><g transform="scale(5.12,5.12)"><path d="M17.14063,19c-2.651,0 -5.19336,1.05273 -7.06836,2.92773l-8.36523,8.36523c-0.63,0.63 -0.18397,1.70703 0.70703,1.70703h4.58594l7.08008,-7.08008c0.83,-0.84 1.91992,-1.91992 4.91992,-1.91992h17l4,-4zM43,19l-11.29297,11.29297c-0.63,0.63 -0.18397,1.70703 0.70703,1.70703h4.17188c0.265,0 0.51903,-0.10497 0.70703,-0.29297l11,-11c0.63,-0.63 0.18397,-1.70703 -0.70703,-1.70703zM19,25c-0.92,0 -2,0 -4,2l-5,5h5.2168c0.265,0 0.51903,-0.10497 0.70703,-0.29297l2.11523,-2.11719c0.37,-0.38 0.88016,-0.58984 1.41016,-0.58984h10.55078l4,-4z"></path></g></g>
</svg>